<svg width="1440" height="600" viewBox="0 0 1440 600" fill="none" xmlns="http://www.w3.org/2000/svg">
<g clip-path="url(#clip0_173_1204)">
<rect width="1440" height="600" fill="#F7F7F7"/>
<rect width="1440" height="875" fill="#F7F7F7"/>
<path d="M2614.79 251.697C2682.33 212.136 2742.82 160.217 2792.14 99.2772C2794.62 96.1198 2797.44 91.9412 2795.65 88.3846C2793.86 84.828 2786.36 87.3362 2788.66 90.6349C2836.84 64.4403 2854.97 5.64135 2868.49 -47.4395C2877.48 -82.317 2886.29 -117.109 2895.27 -151.986C2897.58 -161.003 2899.72 -170.784 2895.64 -178.913C2891.56 -187.042 2878.01 -190.188 2873.23 -182.261C2885.13 -235.162 2891.91 -289.307 2893.33 -343.504C2883.1 -336.648 2873.03 -329.877 2862.8 -323.021C2865.46 -349.622 2866.6 -376.298 2866.2 -403.05C2866.05 -420.801 2864.1 -440.409 2851.5 -452.734C2838.73 -464.973 2811.7 -461.753 2808.96 -444.24C2803.46 -482.428 2797.78 -520.53 2792.28 -558.718C2791.27 -566.271 2788.8 -575.429 2781.39 -577.423C2776.7 -578.669 2771.59 -576.515 2766.98 -577.591C2758.89 -579.666 2756.6 -589.76 2755.58 -598.162C2753.47 -620.233 2751.28 -642.473 2749 -664.457C2747.48 -678.972 2745.79 -694.25 2736.34 -705.405C2726.89 -716.56 2707.12 -719.754 2698.41 -708.15C2681.04 -724.014 2683.96 -751.38 2680.15 -774.715C2676.34 -798.049 2651.9 -823.298 2632.54 -809.507C2620.65 -853.177 2602.87 -895.369 2580.15 -934.642C2573.92 -926.196 2567.69 -917.75 2561.55 -909.559C2539.34 -954.612 2517.14 -999.664 2495.11 -1044.8C2493.09 -982.872 2438.83 -933.029 2431.95 -871.409C2429.97 -854.495 2427.56 -831.633 2410.68 -829.069C2406.76 -828.366 2402.76 -829.106 2398.83 -828.403C2387.15 -826.125 2382.11 -812.335 2379.29 -800.937C2371.16 -767.763 2362.94 -734.759 2354.98 -701.671C2351.64 -687.892 2344.64 -671.202 2330.57 -670.693C2321.11 -670.381 2310.98 -678.219 2302.87 -673.075C2298.44 -670.415 2296.9 -664.97 2295.62 -659.866C2282.27 -606.871 2273.43 -552.545 2269.37 -498.077C2258.13 -501.322 2246.71 -504.48 2235.46 -507.725C2226.88 -455.863 2229.05 -402.197 2241.61 -351.226C2232.07 -355.756 2222.53 -360.285 2213.16 -364.9C2223.06 -299.22 2241.75 -234.781 2268.89 -174.385C2258.06 -176.358 2247.07 -178.246 2236.33 -180.05C2261.58 -116.585 2293.49 -55.6232 2331.28 1.31138C2322.16 -5.34379 2314.9 12.5363 2317.79 23.3907C2345.89 133.808 2453.56 201.789 2552.3 258.782C2563.33 394.358 2562.77 531.956 2559.91 667.955C2504.93 582.331 2566.76 456.935 2511.79 371.31C2509.99 377.521 2508.11 383.563 2506.14 389.86C2490.93 348.503 2471.27 308.532 2447.87 271.301C2439.77 277.295 2435.5 287.937 2437.45 297.778L2329.31 185.039C2330.49 196.753 2331.5 208.553 2332.77 220.436C2289.83 193.684 2246.98 166.677 2204.05 139.926C2203.96 148.25 2203.61 156.491 2203.51 164.815C2170.98 137.916 2130.51 120.747 2088.32 115.904C2094.19 125.891 2099.98 136.134 2105.85 146.121C2063.34 118.517 2011.79 104.813 1960.98 107.921C1963.28 118.014 1965.65 128.277 1968.11 138.285C1949.55 122.598 1928.43 106.078 1904.05 106.904C1879.67 107.73 1856.54 137.001 1871.01 156.449C1843.24 139.035 1812.65 125.799 1780.87 117.836C1781.28 128.875 1781.87 139.828 1782.28 150.867C1765.93 142.132 1747.52 137.401 1728.94 137.003C1737.96 149.859 1714.94 161.039 1699.25 160.454C1677.52 159.735 1655.7 159.271 1633.96 158.552C1665.97 198.45 1701.65 235.437 1740.32 269.009C1733.5 267.776 1726.25 269.094 1720.11 272.613C1738.07 304.526 1761.31 333.349 1788.64 357.562C1776.63 354.067 1763.67 354.229 1751.74 358.123C1771.39 392.574 1798.13 422.82 1829.98 446.665C1817.88 448.522 1806.03 450.462 1793.92 452.318C1821.33 490.289 1856.25 522.779 1896.11 547.681C1886.14 549.1 1876.25 550.264 1866.27 551.682C1899.81 597.176 1950.75 629.231 2006.32 640.278C1994.89 644.764 1983.38 649.504 1971.95 653.989C2013.27 675.4 2058.69 688.377 2105.23 692.09C2097.38 699.866 2089.7 707.556 2081.93 715.502C2139.53 742.505 2205.66 750.771 2268.41 738.673C2257.41 742.307 2254.41 758.038 2260.8 767.767C2267.01 777.582 2278.85 782.013 2290.19 784.153C2324.02 790.66 2360.51 781.183 2387.3 759.193L2376.71 781.085C2411.82 789.283 2445.08 764.452 2475.45 744.905C2505.81 725.357 2549.13 710.743 2575.18 735.387C2613.01 928.133 2635.83 1121.65 2661.9 1316.5C2629.83 1251.38 2597.58 1186.34 2565.51 1121.22C2560.99 1127.53 2556.38 1133.68 2552.03 1139.9C2529.56 1103.26 2503.09 1069.28 2473.45 1038.37C2471.74 1047.72 2469.94 1056.91 2468.23 1066.26C2440.21 1040.69 2407.75 1019.91 2372.74 1005.08C2375.28 1013.56 2377.83 1022.04 2380.64 1030.6C2349.63 1012.7 2309.91 1010.22 2276.91 1024.51C2287.22 1025.05 2297.19 1030.85 2302.72 1039.73C2265.73 1038 2228.39 1045.36 2194.71 1060.85C2204.5 1065.04 2214.39 1068.97 2224.19 1073.16C2189.14 1081.27 2155.72 1095.99 2125.86 1116.13C2134.38 1121.18 2142.73 1126.31 2151.33 1131.52C2112.88 1139.23 2075.54 1153.38 2041.42 1172.7C2048.66 1177.75 2055.9 1182.8 2063.14 1187.86C2025.97 1193.85 1989.74 1205.96 1956.31 1223.66C1958.94 1232.73 1964.64 1240.68 1972.14 1246.24C1941.71 1245.24 1910.85 1251.88 1883.39 1265.29C1919.67 1293.7 1962.35 1314 2007.35 1324.43L1978.86 1339.63C2004.5 1356.63 2032.53 1369.89 2062.1 1378.54C2054.26 1384.19 2046.58 1389.76 2038.82 1395.58C2071.7 1415.94 2108.68 1429.99 2146.94 1436.38L2120.41 1456.76C2173.07 1476.91 2232.14 1480.89 2287.3 1467.73C2274.59 1477.32 2285.9 1499.84 2301.58 1502.13C2317.27 1504.41 2332.02 1494.64 2345.07 1485.3C2358.12 1475.97 2372.96 1466.37 2388.64 1469.08C2382.67 1479.3 2381.97 1492.39 2386.91 1503.06C2431.67 1492.6 2473.63 1470.18 2507.58 1439.06C2507.66 1449 2507.9 1458.85 2508.06 1468.95C2562.98 1442.55 2607.69 1394.97 2630.17 1338.44C2634.1 1328.39 2647.64 1335.36 2655.56 1342.62C2663.48 1349.87 2665.6 1361.33 2667.47 1371.85C2683.73 1470.62 2699.49 1569.64 2710.99 1669.12C2718.59 1735.74 2735.07 1793.66 2735 1862.88C2734.85 1933.63 2730 2004.41 2725.5 2075.02C2717.19 2201.88 2714.68 2329.21 2717.8 2456.26C2718.12 2470.52 2719.39 2486.65 2730.63 2495.42C2750.39 2510.93 2778.88 2488.93 2788.88 2465.85C2802.63 2433.66 2802.32 2397.74 2802.02 2363.09C2800.59 2251.32 2813.49 2143.8 2804.73 2032.76C2800.69 1982.16 2750.14 1814.72 2833 1803.52C2861.64 1799.69 2889.67 1816.76 2907.38 1839.25C2925.17 1861.91 2934.94 1889.45 2945.91 1915.97C2957.05 1942.4 2970.49 1969.16 2993.24 1986.78C2994.7 1974.37 2995.99 1962.05 2997.45 1949.64C3020.42 1994.51 3054.13 2033.98 3094.76 2063.8C3091.97 2045.47 3088.92 2027.06 3086.12 2008.73C3109.01 2047.92 3148.19 2077.41 3192.34 2088.69C3195.08 2075 3197.99 2061.23 3200.73 2047.53C3232.75 2074.27 3266.82 2098.27 3302.69 2119.46C3309.69 2103.62 3313.89 2086.44 3314.76 2069.02C3351.98 2091.22 3387.59 2115.72 3421.4 2142.61C3428.57 2134.33 3432.67 2123.35 3432.6 2112.56C3467.26 2135.63 3497.75 2165.26 3521.5 2199.34C3527.86 2144.35 3520.42 2087.83 3500.35 2036.39C3515.94 2039.78 3531.45 2043 3547.22 2046.3C3528.42 2003.78 3501.19 1964.87 3467.72 1932.71C3482.56 1927.36 3497.48 1922.17 3512.32 1916.82C3488.12 1900.15 3464.02 1883.64 3439.83 1866.97C3429.61 1859.81 3418.53 1851.81 3415.99 1839.51C3413.53 1827.38 3426.24 1812.69 3437.32 1818.57C3403.42 1789.39 3359.54 1771.82 3314.62 1769.62C3322.9 1757.6 3331.18 1745.57 3339.46 1733.54C3305.37 1730.78 3271.11 1731.07 3237.09 1734.84C3243.84 1721.04 3254.25 1709.43 3265.17 1698.83C3236.63 1688.81 3157.89 1664.82 3133.65 1698.68C3143.29 1685.12 3152.94 1671.56 3162.59 1658C3116.91 1647.91 3044.5 1688.43 3005.78 1710.07C3011.34 1695.6 3016.89 1681.12 3022.28 1666.74C2972.65 1682.41 2947.05 1718.66 2907.04 1747.1C2871.13 1772.63 2823.98 1786.84 2780.59 1790.67C2774.45 1791.21 2755.81 1678.36 2754.12 1670.3C2733.42 1566.55 2707.35 1463.17 2702.17 1357.54C2700.83 1332.75 2706.8 1328.04 2726.25 1312.3C2744.51 1297.58 2771.27 1304.47 2793.51 1312.15C2875.99 1340.61 2958.47 1369.08 3040.87 1397.38C3027.07 1383.53 3018.14 1364.9 3016.11 1345.55C3063.29 1389.69 3129.07 1413.41 3193.86 1409.63C3176.74 1396.82 3166.44 1375.48 3166.98 1353.99C3221.5 1386.36 3288.99 1396.48 3350.98 1381.59C3333.69 1367.17 3320.41 1347.97 3313.36 1326.69C3374.11 1345.52 3441.28 1343.51 3501.14 1321.4C3488.71 1308.57 3476.19 1295.56 3463.67 1282.56C3501.44 1278.59 3538.95 1271.57 3575.52 1261.84C3594.96 1256.71 3618.93 1240.18 3609.57 1222.82C3603.45 1211.48 3584.36 1204.97 3588.63 1192.62C3590.52 1187.01 3596.91 1184.42 3602.45 1182.69C3623.77 1176.62 3647.38 1175.54 3665.72 1163.11C3684.23 1150.6 3692.01 1119.3 3673.1 1107.61C3680.87 1094.56 3701.75 1096.14 3711.4 1084.27C3715.32 1079.32 3716.69 1073.12 3718.57 1067.07C3731.57 1028.27 3772.08 1006.36 3809.09 988.56C3771.17 971.8 3730.01 962.195 3688.42 960.661C3701.99 948.094 3715.72 935.441 3729.29 922.874L3623.69 908.815C3618.66 908.165 3612.7 906.927 3610.49 902.099C3608.95 899.05 3609.72 895.478 3609.98 892.164C3610.51 874.07 3592.2 860.166 3574.13 858.66C3556.06 857.155 3538.58 864.904 3522.12 872.563C3523.6 848.687 3497.1 830.84 3472.98 832.173C3448.86 833.507 3427.88 847.903 3408.17 861.866C3404.35 850.847 3405.3 838.27 3411.02 827.959C3356.29 837.715 3302.4 852.988 3250.56 873.174C3253.72 859.905 3256.8 846.892 3259.97 833.623C3224.33 850.739 3191.15 873.191 3162.05 899.95C3161.98 887.041 3161.74 874.217 3161.67 861.307C3127.72 884.784 3093.86 908.429 3059.91 931.905L3061.22 898.773C3008.51 929.156 2963.21 972.575 2930.68 1023.99C2930.52 1014.73 2930.36 1005.47 2930.37 996.129C2895.55 1033.63 2866.28 1076.18 2843.56 1122.02C2846.13 1110.53 2848.69 1099.05 2851.26 1087.57C2809.79 1136.06 2815.93 1215.95 2766.63 1256.51C2745.9 1273.53 2718.1 1280.75 2699.25 1299.8C2669.51 1116.78 2639.68 933.579 2609.95 750.552C2606.81 731.121 2627.62 722.757 2647.39 723.402C2667.17 724.048 2683.78 737.114 2700.39 748.055C2741.27 774.989 2789.08 791.859 2838.08 796.236C2828.72 784.826 2823.36 770.334 2823.04 755.642C2875.17 784.122 2932.95 802.121 2992.09 808.391C2976.85 794.214 2966.64 774.74 2963.42 754.29C3024.77 778.978 3092.27 788.679 3158.33 782.337C3148.03 768.215 3137.65 754.348 3127.35 740.225C3182.15 747.625 3237.98 748.989 3293.13 744.326C3281.13 730.639 3269.29 716.865 3257.29 703.178C3325.99 701.661 3394.62 684.687 3456.02 653.741L3415.65 624.851C3464.5 614.875 3510.98 593.362 3549.96 562.041C3536.77 543.86 3498.07 541.713 3503.8 519.936C3506.28 510.408 3517.2 506.181 3526.32 502.643C3563.16 488.323 3595.49 462.478 3617.51 429.731C3602.18 417.083 3591.29 399.227 3586.88 379.803C3613.57 370.81 3646.66 347.763 3634.16 322.867C3631.18 316.939 3625.73 311.621 3626.67 304.991C3627.44 299.296 3632.82 295.526 3637.6 292.27C3669.5 270.675 3696.03 241.382 3714.39 207.723C3670.08 198.646 3623.88 199.008 3579.63 208.787C3587.91 198.885 3592.52 185.946 3592.03 173.039C3566.62 177.778 3540.96 182.434 3515.55 187.173C3509.5 188.314 3502.42 189.121 3498.08 184.73C3490.93 177.723 3498.1 165.195 3494.36 156.044C3489.6 144.012 3472.12 146.24 3459.84 150.306C3438.87 157.482 3418.06 164.571 3397.09 171.747C3398.46 161.291 3399.92 150.581 3401.3 140.126C3361.74 146.054 3323.62 161.656 3291.13 185.039C3293.52 171.944 3296.01 158.594 3298.41 145.5C3259.53 153.632 3222.86 171.689 3193 197.773C3192.59 185.46 3195.07 172.96 3200.63 161.885C3168.4 167.515 3138.21 184.003 3116.19 208.257C3116.8 197.976 3117.41 187.696 3118.1 177.584C3075.64 191.769 3036.4 216.211 3004.67 247.912C3009.1 246.102 3007.15 238.809 3002.72 237.222C2998.28 235.635 2993.42 237.873 2989.33 239.936C2949.85 260.472 2913 286.259 2880.15 316.184C2882.38 306.573 2878.55 295.979 2870.89 290.079C2850.06 317.978 2834.26 349.499 2824.34 382.938C2818.73 367.089 2815.68 350.375 2815.35 333.56C2792.12 379.65 2770.77 426.492 2751.29 474.088C2757.26 463.01 2738.52 452.506 2728.03 459.704C2717.71 466.815 2715.65 481.012 2714.62 493.418C2711.25 531.829 2708.06 570.155 2704.7 608.566C2701.05 594.064 2687.93 582.421 2673.02 580.812C2685.35 605.369 2683.11 636.639 2667.32 659.242C2651.53 681.844 2622.62 694.928 2595.17 691.781C2591.37 573.149 2587.74 454.431 2583.93 335.799C2582.61 296.567 2582.38 271.427 2616.4 251.518L2614.79 251.697Z" fill="#F7F7F7"/>
<path d="M1389.23 1144.68C1377.37 1074.3 1359.32 1005.1 1353.2 933.732C1350.11 908.985 1348.55 884.077 1344.58 859.186C1334.05 797.1 1307.67 738.685 1297.48 676.173C1278.79 535.822 1284.55 393.564 1276.22 252.296C1274.96 211.35 1276.56 170.185 1286.24 130.213C1308.47 55.4397 1346.97 -14.3032 1389.36 -79.6071C1444.92 -164.627 1496.53 -252.44 1548.66 -339.683C1561.07 -362.287 1571.65 -385.952 1582.33 -409.394C1593.33 -429.744 1599.67 -462.809 1623.05 -471.244C1652.65 -476.029 1651.35 -439.58 1655.16 -419.202C1663.51 -368.525 1672.4 -317.827 1674.35 -266.409C1679.95 -181.867 1640.78 -103.465 1621.61 -22.5257C1595.81 50.8997 1624.04 126.537 1641.43 198.456C1659.4 281.17 1688.87 367.3 1670.19 452.327C1660.23 502.401 1636.49 548.202 1622.63 596.806C1606.15 670.594 1603.01 748.309 1570.56 817.738C1538.26 886.293 1490.54 947.541 1473.56 1022.63C1462.43 1068.92 1453.37 1115.62 1446.7 1162.86C1444.17 1179.91 1442.41 1196.88 1439.88 1213.93C1438.85 1220.6 1437.48 1227.69 1432.25 1232.22C1455.52 1280.18 1479.24 1327.93 1506.09 1374.27C1579.97 1500.94 1663.06 1622.36 1729.42 1753.24C1730.31 1736.13 1731.52 1719.13 1730.09 1702.26C1721.19 1600.88 1715.51 1498.85 1695.46 1399.01C1678.02 1297.19 1649.21 1197.01 1636.85 1094.51C1629.46 1010.78 1642.59 927.183 1652.07 844.437C1659.47 744.57 1700.35 653.261 1736.09 561.313C1754.29 513.977 1766.42 464.537 1778.01 415.075C1798.52 336.496 1818.61 257.572 1825.73 176.163C1831.66 150.558 1825.28 83.3566 1857.97 78.2522C1869.01 76.4832 1878.13 84.7537 1881.14 94.9851C1909.26 162.044 1942.06 227.525 1960.17 298.041C2003.5 487.615 2062.37 672.846 2109.59 861.471C2122.8 913.987 2138.73 967.158 2138.68 1021.91C2141.73 1124.05 2065.08 1201.1 2027.05 1289.77C1991.77 1364.26 1998.95 1450.51 1968.43 1526.61C1947.35 1586.04 1900.66 1629.3 1859.49 1674.64C1833.87 1703.77 1808.89 1733.69 1785.08 1764.42C1777.08 1775.33 1766.91 1785.59 1763.21 1798.86C1762.27 1803.33 1759.5 1806.74 1756.11 1809.36C1782.91 1868.12 1809.71 1926.88 1835.39 1986.15C1883.77 2111.17 1937.11 2235.28 1963.59 2367.24C1970.39 2395.43 1984.96 2433.05 1953.82 2451.74C1937.32 2461.1 1914.66 2456.81 1903.62 2441.32C1895.26 2430.55 1896.02 2416.73 1891.56 2404.46C1879.43 2357.92 1873.39 2309.97 1860.37 2263.84C1827.9 2164.51 1790.44 2066.64 1749.18 1970.48C1744.67 1970.64 1740.29 1970.47 1736.1 1970.74C1710.33 1970.29 1684.04 1968.72 1658.62 1964.87C1575.93 1991.01 1504.44 2042.53 1423.07 2071.58C1284.62 2128.64 1129.25 2132.71 984.366 2098.59C888.418 2076.28 793.222 2043.11 713.891 1983.08C628.372 1921.26 535.035 1871.34 441.065 1823.6C370.674 1790.52 295.737 1767.04 230.359 1723.6C211.404 1711.43 191.879 1699.79 174.329 1685.36C170.499 1682.24 167.259 1678.05 165.584 1673.15C162.781 1663.36 167.737 1651.68 177.527 1648.33C248.649 1640.1 320.462 1631.02 392.38 1630.52C471.891 1629.55 551.039 1637.9 630.565 1639.35C728.225 1637.43 824.291 1651.07 919.431 1671.59C995.236 1686.85 1072.31 1694.8 1147.73 1711.59C1249.4 1733.46 1348.15 1768.53 1437.72 1822.04C1505.83 1860.2 1574.77 1907.96 1652.31 1921.09C1659.86 1918.74 1668.57 1920.73 1674.16 1926.56C1679.37 1927.97 1685.52 1927.88 1690.98 1928.64C1704.56 1929.5 1718.42 1931.58 1732.42 1932.78C1693.1 1843.3 1650.76 1754.91 1605.73 1668.28C1553.14 1572.68 1499.43 1477.58 1448.08 1381.14C1434.76 1354.02 1422.1 1326.59 1409.67 1299.06C1391 1296.47 1368.94 1288.13 1357.94 1285.83C1355.77 1285.2 1356.76 1285.02 1355.03 1287.15C1348.64 1296.25 1336.28 1298.07 1326.97 1303.1C1299.63 1314.68 1274.53 1330.63 1249.95 1347.16C1110.32 1443.31 948.582 1503.64 780.331 1522.7C656.589 1534.82 532.134 1506.01 408.778 1527.93C296.284 1538.72 184.915 1565.72 71.6073 1566.37C18.1835 1565.5 3.73786 1530.52 53.7605 1505.97C226.444 1409.68 384.932 1286.12 569.567 1212.72C642.756 1185.22 719.859 1169.97 796.978 1157.14C860.124 1147.95 923.435 1137.33 987.452 1139.6C1099.4 1140.11 1200.19 1195.81 1304.24 1230.09C1333.36 1240.35 1362.49 1250.61 1391.77 1259.99C1364.99 1200.68 1338.88 1141.07 1309.19 1083.08C1270.55 1007.03 1226.85 934.092 1182.03 861.656C1175.55 864.592 1168.22 863.867 1162.22 860.116C1149.83 854.136 1137.19 848.807 1124.56 843.478C1107.46 837.206 1090.7 830.507 1073.73 823.91C1028.77 850.745 984.731 879.594 939.151 905.636C833.884 967.613 737.458 1013.99 612.265 1009.78C525.082 1010.46 437.762 997.713 350.7 1009.39C144.592 1039.41 -59.8851 1117.75 -235.801 955.891C-252.069 939.536 -273.504 929.027 -289.915 913.547C-290.947 911.857 -290.659 910.11 -291.143 908.442C-299.976 909.747 -308.132 907.78 -310.87 896.35C-313.171 879.33 -293.092 876.703 -281.045 871.785C-232.295 854.553 -186.353 830.504 -141.039 805.662C-25.4183 742.768 88.1984 666.494 222.497 653.91C273.358 647.314 324.803 642.609 376.295 645.163C456.508 648.724 534.163 672.854 613.513 681.659C692.857 693.432 774.206 676.259 852.703 695.694C927.508 714.107 997.106 747.818 1068.68 775.78C1074.63 778.21 1080.57 780.64 1086.51 783.07C1093.25 781.903 1100.42 784.051 1104.02 790.238C1119.57 796.67 1135.11 803.651 1150.2 810.834C1126.74 773.202 1103.07 735.67 1079.84 697.937C1055.76 659.51 1031.8 620.758 1007.72 582.332C1007.27 582.534 1007.25 583.083 1007.03 583.184C995.875 587.698 984.687 579.017 973.424 577.919C945.79 571.567 917.645 567.063 889.659 564.105C767.756 548.697 643.679 555.302 522.869 531.582C447.675 514.693 373.298 485.303 308.404 443.529C277.826 416.943 252.84 384.858 222.262 358.272C172.852 307.866 106.683 284.732 44.24 256.136C-28.4971 218.455 -97.1459 165.981 -139.715 94.9521C-152.056 73.5833 -246.884 -95.8965 -194.753 -98.4853C-191.459 -101.326 -187.335 -102.924 -182.771 -101.757C-158.191 -90.2462 -135.001 -74.0621 -109.384 -63.8303C-24.9525 -27.6727 57.6858 12.2632 142.73 46.7955C209.52 73.6914 281.336 84.2916 349.516 106.514C421.633 129.11 488.14 166.109 556.627 197.358C566.017 201.462 575.082 205.443 584.148 209.424C570.264 188.215 557.946 166.297 552.562 157.952C515.796 98.5828 495.365 31.274 485.532 -37.6012C474.186 -90.1543 492.311 -141.231 503.29 -192.035C512.742 -240.261 516.511 -289.148 526.51 -337.352C542.238 -408.641 567.421 -477.473 589.986 -546.736C604.076 -590.054 617.842 -633.494 627.367 -677.979C628.747 -688.04 637.064 -695.852 647.354 -695.121C654.01 -694.093 658.186 -691.402 660.899 -687.778C679.606 -683.312 677.882 -653.146 685.281 -637.356C697.204 -599.623 711.015 -562.475 725.721 -525.733C822.831 -276.678 1015.31 -63.8196 1052.84 207.104C1057.45 257.855 1049.66 308.564 1049.12 359.225C1048.37 398.115 1048.72 437.048 1048.75 475.857C1048.32 478.479 1048.53 481.346 1048.75 484.213C1054.26 489.265 1054.51 496.97 1055.55 504.047C1057.43 520.721 1059.63 537.518 1063.6 554.053C1069.3 576.812 1077.11 598.885 1085.37 620.754C1087.53 627.325 1091.84 635.078 1093.95 642.746C1166 754.61 1237.69 866.901 1304.46 981.967C1335.33 1034.84 1362.18 1089.54 1388.68 1144.66L1389.23 1144.68Z" fill="white"/>
<path d="M765.334 272.459C769.842 266.647 773.829 260.448 778.811 255.003C780.47 253.04 782.248 251.184 783.858 249.145C787.829 244.013 790.422 237.934 794.449 232.798C803.782 221.584 814.958 212.092 825.08 201.6C828.094 198.647 831.324 195.895 835.024 193.84C842.232 190.308 850.189 188.362 858.081 187.021C868.38 185.303 878.617 183.09 888.847 180.957C891.421 180.321 893.948 179.472 896.466 178.647C898.772 178.061 901.716 176.234 903.979 177.42C906.398 179.332 903.546 181.777 902.268 183.489C899.009 187.659 895.787 191.872 892.027 195.609C886.012 201.934 877.353 204.434 869.89 208.628C862.536 211.795 858.767 219.217 854.528 225.556C849.511 232.693 845.033 240.94 837.295 245.457C832.81 248.196 827.692 249.592 823.048 251.932C816.313 255.831 810.209 261.018 802.696 263.401C795.259 265.734 787.304 266.388 780.437 270.341C776.158 272.727 771.991 275.298 767.949 278.089C766.482 279.087 765.074 280.138 763.607 281.137C763.03 281.524 762.398 281.915 761.692 281.834C759.676 286.947 757.706 292.08 756.06 297.351C751.598 311.799 748.172 326.578 742.868 340.749C744.226 339.622 745.598 338.528 746.777 337.241C753.838 329.49 761.171 321.938 767.341 313.449C773.843 305.019 779.43 295.84 786.335 287.748C792.165 281.343 799.409 276.505 806.335 271.449C814.414 265.041 824.17 261.77 833.618 258.065C838.467 256.142 843.055 253.612 847.607 251.039C854.984 247.111 862.357 243.127 869.019 237.985C871.37 236.649 876.017 231.474 878.675 233.598C879.576 234.313 879.583 235.582 879.017 236.524C875.891 243.339 873.209 250.398 869.126 256.694C857.776 273.213 847.835 290.609 836.826 307.356C833.766 312.024 830.845 316.944 826.695 320.762C819.17 328.123 808.008 327.684 798.65 330.986C790.557 333.508 784.522 340.073 776.638 343.069C770.672 345.616 764.152 345.092 757.857 345.133C753.872 345.222 749.87 345.414 745.888 345.753C744.506 345.907 743.022 345.852 741.76 346.497C741.356 346.738 740.905 346.766 740.471 346.691C737.882 352.826 735.293 358.961 732.587 365.046C726.478 377.442 720.782 390.153 712.625 401.373C710.963 403.856 709.125 407.587 705.547 406.529C703.691 405.93 702.442 403.911 702.849 401.992C703.084 400.606 704.183 399.699 704.803 398.504C707.485 394.336 710.698 390.531 713.288 386.323C718.556 376.927 723.368 367.252 727.785 357.41C727.46 357.079 727.169 356.735 726.857 356.437C725.101 354.449 723.394 352.344 721.919 350.146C714.196 345.696 705.327 343.868 697.474 339.72C683.535 333.197 672.434 321.69 664.953 308.315C659.978 299.477 655.878 289.938 654.915 279.728C653.657 268.924 650.954 258.357 648.043 247.894C645.659 240.243 642.232 232.918 640.981 224.925C640.586 222.637 640.112 220.343 639.985 218.005C639.955 217.496 640.048 216.958 640.303 216.488C640.849 215.593 642.079 215.154 643.013 215.662C648.576 220.485 654.253 225.301 659.286 230.724C664.883 236.689 669.748 243.279 675.163 249.414C682.092 256.691 687.733 264.933 692.787 273.585C696.897 280.402 701.649 286.806 705.616 293.701C711.022 302.943 715.225 312.883 717.394 323.415C719.235 331.247 720.406 339.812 724.797 346.612C725.5 347.022 725.954 347.821 725.901 348.652C726.156 349.146 726.591 349.606 726.912 350.074C727.79 351.164 728.595 352.361 729.477 353.508C733.523 344.278 737.278 334.896 740.711 325.433C744.3 314.769 747.773 304.056 751.511 293.429C752.64 290.525 753.838 287.65 755.06 284.786C753.96 283.188 753.058 280.932 752.468 279.937C752.366 279.728 752.448 279.791 752.167 279.808C751.034 279.958 750.036 279.147 749.009 278.792C746.233 277.525 743.281 276.734 740.322 276.022C723.339 272.137 707.534 264.075 694.402 252.638C684.889 244.093 678.426 232.638 668.197 224.807C659.565 217.024 649.783 210.457 641.863 201.904C638.218 197.79 639.864 194.253 645.198 196.335C664.488 202.718 684.857 206.121 703.242 215.009C710.409 218.644 716.92 223.43 723.249 228.387C728.332 232.537 733.535 236.6 737.809 241.616C745.547 250.147 748.33 261.683 752.96 271.971C754.206 274.898 755.453 277.824 756.775 280.7C759.408 274.528 762.11 268.386 764.441 262.086C767.516 253.846 770.006 245.439 772.379 236.982C771.707 236.696 771.253 236.089 771.12 235.372C770.712 234.014 770.238 232.683 769.764 231.353C769.051 229.617 768.395 227.878 767.715 226.13C762.56 224.591 757.315 223.263 752.176 221.622C740.169 217.959 729.958 213.879 721.58 204.085C715.473 197.516 710.373 190.001 703.441 184.209C686.849 170.664 666.711 160.615 666.752 135.969C666.86 133.593 666.167 131.233 666.2 128.907C666.256 128.711 666.409 128.611 666.501 128.458C665.789 127.879 665.371 127.122 666.047 126.117C667.176 124.754 668.77 126.095 669.979 126.666C674.671 129.162 679.684 130.97 684.714 132.675C697.509 137.059 711.179 140.357 721.462 149.67C725.494 153.069 729.424 156.645 732.808 160.73C738.11 167.066 741.677 174.643 746.522 181.278C751.142 188.121 758.093 193.096 762.074 200.409C765.876 207.37 768.157 215.005 771.011 222.388C771.24 223.008 771.468 223.629 771.697 224.25C772.254 224.68 772.589 225.373 772.37 226.078C772.963 227.707 773.514 229.374 774.018 231.02C775.239 226.614 776.437 222.198 777.682 217.801C778.92 213.292 780.191 208.769 781.429 204.26C781.383 204.24 781.34 204.277 781.317 204.267C780.2 203.736 780.08 202.281 779.381 201.349C777.943 198.809 776.329 196.359 774.609 194.029C767.308 183.703 758.188 174.749 751.593 163.925C747.649 157.041 744.709 149.345 743.365 141.505C743.255 137.329 743.95 133.194 743.839 129.018C744.225 121.75 741.381 115.115 739.21 108.38C737.011 100.231 736.217 91.3592 738.64 83.1714C739.402 80.7435 745.652 61.7187 749.47 65.494C749.914 65.5457 750.321 65.7471 750.55 66.1749C751.385 68.8435 751.77 71.7328 752.775 74.3908C755.901 83.3215 758.616 92.3797 761.908 101.243C764.511 108.189 768.696 114.378 771.749 121.103C775.047 128.153 776.864 135.782 779.255 143.16C779.596 144.159 779.925 145.125 780.253 146.091C780.895 143.557 781.699 141.092 781.958 140.101C783.901 133.168 787.58 126.919 792.114 121.366C795.307 116.837 800.435 114.648 805.046 111.935C809.355 109.286 813.32 106.16 817.666 103.555C824.159 99.7727 831.122 96.8795 837.936 93.7576C842.196 91.8035 846.443 89.8162 850.474 87.4342C851.332 86.8367 852.501 86.9226 853.161 87.7544C853.545 88.3313 853.631 88.836 853.545 89.2948C854.507 91.026 852.102 93.0007 851.42 94.6641C849.39 98.2025 847.535 101.843 845.774 105.524C833.654 130.275 830.901 159.738 812.986 181.495C809.462 185.387 805.08 188.335 801.205 191.83C798.207 194.487 795.282 197.231 792.344 199.942C792.116 200.092 791.914 200.309 791.712 200.525C791.712 201.296 791.146 201.853 790.682 202.426C789.549 203.732 788.43 205.071 787.453 206.526C786.125 208.547 784.995 210.681 783.913 212.834C783.565 213.456 783.277 214.324 782.843 215.02C779.374 228.295 775.849 241.573 771.77 254.67C769.91 260.703 767.632 266.558 765.298 272.416L765.334 272.459Z" fill="#4E7637"/>
<path d="M683.828 275.149C679.574 278.312 675.561 283.361 674.256 288.55C669.753 290.13 665.254 291.81 660.737 293.344C661.764 289.067 662.482 284.682 662.797 280.293C662.893 278.858 662.373 275.875 663.028 274.623C663.991 272.727 667.924 270.841 669.575 269.641C679.797 262.247 685.47 249.09 674.631 239.466C665.559 231.621 654.151 237.162 647.976 245.724C645.175 249.956 643.455 255.27 644.529 260.347C646.415 267.54 653.148 273.375 660.53 274.345C660.528 274.421 660.503 274.504 660.5 274.58C660.105 277.361 660.02 280.174 659.602 282.962C658.759 288.69 657.318 294.347 655.417 299.816C653.256 305.589 650.297 311.049 648.512 316.985C647.328 320.656 646.317 324.401 645.306 328.146C644.576 330.902 643.733 333.616 643.192 336.416C643.183 336.469 643.18 336.545 643.171 336.598C641.773 332.699 640.351 328.807 638.867 324.959C633.837 311.077 629.354 297.005 624.355 283.139C623.286 280.171 621.511 276.862 622.322 273.705C623.202 270.276 625.539 266.51 626.97 263.241C635.371 245.948 629.641 226.224 625.134 208.644C629.826 205.852 634.088 201.632 634.524 195.976C634.901 191.041 632.787 186.101 629.615 182.409C625.444 178.239 619.035 175.319 613.083 176.682C606.807 178.469 602.181 184.406 600.557 190.544C599.367 195.197 600.57 200.285 603.783 203.864C607.98 208.705 615.233 211.672 621.357 208.876C621.597 209.256 621.963 209.472 622.402 209.591C622.554 210.349 622.683 211.114 622.836 211.872C624.853 222.842 627.308 233.933 626.712 245.162C626.508 248.161 626.357 251.17 625.622 254.078C624.351 258.881 622.063 263.311 620.572 268.053C620.289 269.118 619.853 270.178 619.554 271.273C619.102 270.103 618.649 268.933 618.243 267.749C616.133 261.653 614.999 255.289 613.311 249.091C609.915 236.375 605.88 230.984 597.427 221.27C592.158 214.869 586.827 208.511 581.682 202.022C584.283 200.637 586.487 198.518 588.307 196.212C591.938 191.479 592.666 184.705 590.785 179.118C589.063 174.563 584.918 171.063 580.207 169.943C572.982 168.324 565.049 174.552 561.423 180.389C554.834 191.085 563.904 205.61 576.611 202.216C576.969 202.987 577.857 203.348 578.768 203.2C581.781 208.622 585.572 213.786 589.222 218.816C592.984 224.138 597.317 229.014 601.243 234.212C602.127 235.478 602.932 236.818 603.661 238.156C602.875 237.463 602.088 236.77 601.246 236.144C596.928 233.073 592.166 230.613 587.179 228.747C580.321 226.339 573.512 223.264 566.425 221.603C566.349 221.098 566.227 220.608 565.95 220.189C566.092 217.484 564.975 214.856 563.192 212.856C558.585 207.486 550.368 204.407 543.721 207.636C538.999 210.161 537.077 215.812 536.265 220.803C534.336 231.278 543.24 237.892 552.927 237.917C559.891 237.581 565.841 231.447 566.413 224.57C567.07 224.749 567.713 224.882 568.345 225.144C573.373 227.148 578.304 229.332 583.316 231.366C587.329 232.921 591.261 234.627 594.988 236.821C599.974 239.44 603.875 243.465 607.668 247.549C609.452 252.813 610.766 258.27 612.345 263.521C614.148 269.433 616.59 275.127 619.117 280.771C621.452 286.197 623.241 291.812 625.261 297.357C626.851 301.726 628.257 306.15 629.594 310.595C626.655 308.013 623.795 305.357 620.508 303.206C614.746 299.012 607.602 297.745 601.246 294.835C596.063 292.4 591.144 289.334 587.061 285.288C586.276 284.52 585.462 283.735 584.678 282.966C585.489 282.571 586.167 282.066 586.363 281.128C588.184 278.823 590.217 276.303 590.864 273.27C592.284 267.544 590.486 261.229 586.829 256.678C582.1 251.069 573.71 249.423 566.867 251.581C559.419 253.821 554.261 260.746 553.756 268.432C552.858 277.567 561.897 283.965 569.925 285.745C573.762 286.801 577.661 285.553 581.318 284.253C582.068 285.157 582.841 286.055 583.63 286.923C591.033 295.32 600.74 299.508 611.173 302.849C617.446 305.232 622.646 309.646 627.75 313.912C628.931 314.913 630.145 315.854 631.441 316.82C633.798 325.077 636.01 333.352 638.667 341.519C639.609 344.651 640.551 347.783 641.493 350.915C632.443 346.404 623.107 342.531 613.531 339.283C609.375 337.921 605.03 337.269 600.727 336.504C600.227 336.428 599.779 336.362 599.32 336.173C601.87 332.694 600.376 327.644 600.135 323.748C599.829 318.717 598.607 314.238 594.513 310.823C588.516 305.846 579.216 306.859 573.617 311.984C569.522 315.676 567.161 321.283 567.209 326.794C567.537 336.665 576.672 344.717 586.536 343.659C590.537 343.335 594.404 341.645 597.179 338.751C598.002 338.981 598.842 339.18 599.596 339.431C603.747 340.442 607.949 341.288 612.013 342.678C620.151 345.58 628.051 349.106 635.968 352.526C638.293 353.485 640.565 354.685 642.915 355.561C648.987 375.835 655.019 396.146 662.214 416.057C665.454 425.077 669.511 433.802 674.421 442.02C675.473 443.763 676.549 445.499 677.771 447.14C678.447 448.218 679.531 448.896 680.837 448.805C682.548 448.642 683.82 446.853 683.374 445.204C682.592 443.355 681.238 441.778 680.363 439.957C675.931 432.073 672.079 423.864 668.899 415.378C664.07 402.414 660.26 388.994 656.117 375.8C654.03 369.195 651.943 362.59 649.78 355.982C648.217 351.203 645.753 346.52 645.663 341.374C645.595 337.049 647.48 332.866 648.691 328.785C650.297 323.506 651.683 318.166 653.681 313.02C654.987 309.589 656.656 306.274 657.992 302.859C658.819 300.676 659.563 298.468 660.194 296.219C660.263 296.199 660.339 296.201 660.432 296.173C665.656 294.652 670.752 292.869 675.984 291.371C674.762 291.738 679.356 299.573 680.066 300.264C682.484 302.701 686.141 303.409 689.455 303.392C697.789 303.849 706.529 298.634 707.123 289.741C707.415 285.61 707.302 280.973 704.871 277.485C700.1 270.482 690.331 270.607 683.909 275.25L683.828 275.149Z" fill="#90A74D"/>
<path d="M575.888 352.909H806.888V364.975L749.921 377.052V389.254L785.707 433.069V482.795L730.635 535.909H659.112L596.456 475.945V434.08L631.898 389.254V379.235L575.888 360.77V352.909Z" fill="#C9D591"/>
</g>
<defs>
<clipPath id="clip0_173_1204">
<rect width="1440" height="600" fill="white"/>
</clipPath>
</defs>
</svg>
