<svg width="1440" height="600" viewBox="0 0 1440 600" fill="none" xmlns="http://www.w3.org/2000/svg">
<g clip-path="url(#clip0_173_1204)">
<rect width="1440" height="600" fill="#F7F7F7"/>
<rect width="1440" height="875" fill="#F7F7F7"/>
<path d="M2614.79 251.697C2682.33 212.136 2742.82 160.217 2792.14 99.2772C2794.62 96.1198 2797.44 91.9412 2795.65 88.3846C2793.86 84.828 2786.36 87.3362 2788.66 90.6349C2836.84 64.4403 2854.97 5.64135 2868.49 -47.4395C2877.48 -82.317 2886.29 -117.109 2895.27 -151.986C2897.58 -161.003 2899.72 -170.784 2895.64 -178.913C2891.56 -187.042 2878.01 -190.188 2873.23 -182.261C2885.13 -235.162 2891.91 -289.307 2893.33 -343.504C2883.1 -336.648 2873.03 -329.877 2862.8 -323.021C2865.46 -349.622 2866.6 -376.298 2866.2 -403.05C2866.05 -420.801 2864.1 -440.409 2851.5 -452.734C2838.73 -464.973 2811.7 -461.753 2808.96 -444.24C2803.46 -482.428 2797.78 -520.53 2792.28 -558.718C2791.27 -566.271 2788.8 -575.429 2781.39 -577.423C2776.7 -578.669 2771.59 -576.515 2766.98 -577.591C2758.89 -579.666 2756.6 -589.76 2755.58 -598.162C2753.47 -620.233 2751.28 -642.473 2749 -664.457C2747.48 -678.972 2745.79 -694.25 2736.34 -705.405C2726.89 -716.56 2707.12 -719.754 2698.41 -708.15C2681.04 -724.014 2683.96 -751.38 2680.15 -774.715C2676.34 -798.049 2651.9 -823.298 2632.54 -809.507C2620.65 -853.177 2602.87 -895.369 2580.15 -934.642C2573.92 -926.196 2567.69 -917.75 2561.55 -909.559C2539.34 -954.612 2517.14 -999.664 2495.11 -1044.8C2493.09 -982.872 2438.83 -933.029 2431.95 -871.409C2429.97 -854.495 2427.56 -831.633 2410.68 -829.069C2406.76 -828.366 2402.76 -829.106 2398.83 -828.403C2387.15 -826.125 2382.11 -812.335 2379.29 -800.937C2371.16 -767.763 2362.94 -734.759 2354.98 -701.671C2351.64 -687.892 2344.64 -671.202 2330.57 -670.693C2321.11 -670.381 2310.98 -678.219 2302.87 -673.075C2298.44 -670.415 2296.9 -664.97 2295.62 -659.866C2282.27 -606.871 2273.43 -552.545 2269.37 -498.077C2258.13 -501.322 2246.71 -504.48 2235.46 -507.725C2226.88 -455.863 2229.05 -402.197 2241.61 -351.226C2232.07 -355.756 2222.53 -360.285 2213.16 -364.9C2223.06 -299.22 2241.75 -234.781 2268.89 -174.385C2258.06 -176.358 2247.07 -178.246 2236.33 -180.05C2261.58 -116.585 2293.49 -55.6232 2331.28 1.31138C2322.16 -5.34379 2314.9 12.5363 2317.79 23.3907C2345.89 133.808 2453.56 201.789 2552.3 258.782C2563.33 394.358 2562.77 531.956 2559.91 667.955C2504.93 582.331 2566.76 456.935 2511.79 371.31C2509.99 377.521 2508.11 383.563 2506.14 389.86C2490.93 348.503 2471.27 308.532 2447.87 271.301C2439.77 277.295 2435.5 287.937 2437.45 297.778L2329.31 185.039C2330.49 196.753 2331.5 208.553 2332.77 220.436C2289.83 193.684 2246.98 166.677 2204.05 139.926C2203.96 148.25 2203.61 156.491 2203.51 164.815C2170.98 137.916 2130.51 120.747 2088.32 115.904C2094.19 125.891 2099.98 136.134 2105.85 146.121C2063.34 118.517 2011.79 104.813 1960.98 107.921C1963.28 118.014 1965.65 128.277 1968.11 138.285C1949.55 122.598 1928.43 106.078 1904.05 106.904C1879.67 107.73 1856.54 137.001 1871.01 156.449C1843.24 139.035 1812.65 125.799 1780.87 117.836C1781.28 128.875 1781.87 139.828 1782.28 150.867C1765.93 142.132 1747.52 137.401 1728.94 137.003C1737.96 149.859 1714.94 161.039 1699.25 160.454C1677.52 159.735 1655.7 159.271 1633.96 158.552C1665.97 198.45 1701.65 235.437 1740.32 269.009C1733.5 267.776 1726.25 269.094 1720.11 272.613C1738.07 304.526 1761.31 333.349 1788.64 357.562C1776.63 354.067 1763.67 354.229 1751.74 358.123C1771.39 392.574 1798.13 422.82 1829.98 446.665C1817.88 448.522 1806.03 450.462 1793.92 452.318C1821.33 490.289 1856.25 522.779 1896.11 547.681C1886.14 549.1 1876.25 550.264 1866.27 551.682C1899.81 597.176 1950.75 629.231 2006.32 640.278C1994.89 644.764 1983.38 649.504 1971.95 653.989C2013.27 675.4 2058.69 688.377 2105.23 692.09C2097.38 699.866 2089.7 707.556 2081.93 715.502C2139.53 742.505 2205.66 750.771 2268.41 738.673C2257.41 742.307 2254.41 758.038 2260.8 767.767C2267.01 777.582 2278.85 782.013 2290.19 784.153C2324.02 790.66 2360.51 781.183 2387.3 759.193L2376.71 781.085C2411.82 789.283 2445.08 764.452 2475.45 744.905C2505.81 725.357 2549.13 710.743 2575.18 735.387C2613.01 928.133 2635.83 1121.65 2661.9 1316.5C2629.83 1251.38 2597.58 1186.34 2565.51 1121.22C2560.99 1127.53 2556.38 1133.68 2552.03 1139.9C2529.56 1103.26 2503.09 1069.28 2473.45 1038.37C2471.74 1047.72 2469.94 1056.91 2468.23 1066.26C2440.21 1040.69 2407.75 1019.91 2372.74 1005.08C2375.28 1013.56 2377.83 1022.04 2380.64 1030.6C2349.63 1012.7 2309.91 1010.22 2276.91 1024.51C2287.22 1025.05 2297.19 1030.85 2302.72 1039.73C2265.73 1038 2228.39 1045.36 2194.71 1060.85C2204.5 1065.04 2214.39 1068.97 2224.19 1073.16C2189.14 1081.27 2155.72 1095.99 2125.86 1116.13C2134.38 1121.18 2142.73 1126.31 2151.33 1131.52C2112.88 1139.23 2075.54 1153.38 2041.42 1172.7C2048.66 1177.75 2055.9 1182.8 2063.14 1187.86C2025.97 1193.85 1989.74 1205.96 1956.31 1223.66C1958.94 1232.73 1964.64 1240.68 1972.14 1246.24C1941.71 1245.24 1910.85 1251.88 1883.39 1265.29C1919.67 1293.7 1962.35 1314 2007.35 1324.43L1978.86 1339.63C2004.5 1356.63 2032.53 1369.89 2062.1 1378.54C2054.26 1384.19 2046.58 1389.76 2038.82 1395.58C2071.7 1415.94 2108.68 1429.99 2146.94 1436.38L2120.41 1456.76C2173.07 1476.91 2232.14 1480.89 2287.3 1467.73C2274.59 1477.32 2285.9 1499.84 2301.58 1502.13C2317.27 1504.41 2332.02 1494.64 2345.07 1485.3C2358.12 1475.97 2372.96 1466.37 2388.64 1469.08C2382.67 1479.3 2381.97 1492.39 2386.91 1503.06C2431.67 1492.6 2473.63 1470.18 2507.58 1439.06C2507.66 1449 2507.9 1458.85 2508.06 1468.95C2562.98 1442.55 2607.69 1394.97 2630.17 1338.44C2634.1 1328.39 2647.64 1335.36 2655.56 1342.62C2663.48 1349.87 2665.6 1361.33 2667.47 1371.85C2683.73 1470.62 2699.49 1569.64 2710.99 1669.12C2718.59 1735.74 2735.07 1793.66 2735 1862.88C2734.85 1933.63 2730 2004.41 2725.5 2075.02C2717.19 2201.88 2714.68 2329.21 2717.8 2456.26C2718.12 2470.52 2719.39 2486.65 2730.63 2495.42C2750.39 2510.93 2778.88 2488.93 2788.88 2465.85C2802.63 2433.66 2802.32 2397.74 2802.02 2363.09C2800.59 2251.32 2813.49 2143.8 2804.73 2032.76C2800.69 1982.16 2750.14 1814.72 2833 1803.52C2861.64 1799.69 2889.67 1816.76 2907.38 1839.25C2925.17 1861.91 2934.94 1889.45 2945.91 1915.97C2957.05 1942.4 2970.49 1969.16 2993.24 1986.78C2994.7 1974.37 2995.99 1962.05 2997.45 1949.64C3020.42 1994.51 3054.13 2033.98 3094.76 2063.8C3091.97 2045.47 3088.92 2027.06 3086.12 2008.73C3109.01 2047.92 3148.19 2077.41 3192.34 2088.69C3195.08 2075 3197.99 2061.23 3200.73 2047.53C3232.75 2074.27 3266.82 2098.27 3302.69 2119.46C3309.69 2103.62 3313.89 2086.44 3314.76 2069.02C3351.98 2091.22 3387.59 2115.72 3421.4 2142.61C3428.57 2134.33 3432.67 2123.35 3432.6 2112.56C3467.26 2135.63 3497.75 2165.26 3521.5 2199.34C3527.86 2144.35 3520.42 2087.83 3500.35 2036.39C3515.94 2039.78 3531.45 2043 3547.22 2046.3C3528.42 2003.78 3501.19 1964.87 3467.72 1932.71C3482.56 1927.36 3497.48 1922.17 3512.32 1916.82C3488.12 1900.15 3464.02 1883.64 3439.83 1866.97C3429.61 1859.81 3418.53 1851.81 3415.99 1839.51C3413.53 1827.38 3426.24 1812.69 3437.32 1818.57C3403.42 1789.39 3359.54 1771.82 3314.62 1769.62C3322.9 1757.6 3331.18 1745.57 3339.46 1733.54C3305.37 1730.78 3271.11 1731.07 3237.09 1734.84C3243.84 1721.04 3254.25 1709.43 3265.17 1698.83C3236.63 1688.81 3157.89 1664.82 3133.65 1698.68C3143.29 1685.12 3152.94 1671.56 3162.59 1658C3116.91 1647.91 3044.5 1688.43 3005.78 1710.07C3011.34 1695.6 3016.89 1681.12 3022.28 1666.74C2972.65 1682.41 2947.05 1718.66 2907.04 1747.1C2871.13 1772.63 2823.98 1786.84 2780.59 1790.67C2774.45 1791.21 2755.81 1678.36 2754.12 1670.3C2733.42 1566.55 2707.35 1463.17 2702.17 1357.54C2700.83 1332.75 2706.8 1328.04 2726.25 1312.3C2744.51 1297.58 2771.27 1304.47 2793.51 1312.15C2875.99 1340.61 2958.47 1369.08 3040.87 1397.38C3027.07 1383.53 3018.14 1364.9 3016.11 1345.55C3063.29 1389.69 3129.07 1413.41 3193.86 1409.63C3176.74 1396.82 3166.44 1375.48 3166.98 1353.99C3221.5 1386.36 3288.99 1396.48 3350.98 1381.59C3333.69 1367.17 3320.41 1347.97 3313.36 1326.69C3374.11 1345.52 3441.28 1343.51 3501.14 1321.4C3488.71 1308.57 3476.19 1295.56 3463.67 1282.56C3501.44 1278.59 3538.95 1271.57 3575.52 1261.84C3594.96 1256.71 3618.93 1240.18 3609.57 1222.82C3603.45 1211.48 3584.36 1204.97 3588.63 1192.62C3590.52 1187.01 3596.91 1184.42 3602.45 1182.69C3623.77 1176.62 3647.38 1175.54 3665.72 1163.11C3684.23 1150.6 3692.01 1119.3 3673.1 1107.61C3680.87 1094.56 3701.75 1096.14 3711.4 1084.27C3715.32 1079.32 3716.69 1073.12 3718.57 1067.07C3731.57 1028.27 3772.08 1006.36 3809.09 988.56C3771.17 971.8 3730.01 962.195 3688.42 960.661C3701.99 948.094 3715.72 935.441 3729.29 922.874L3623.69 908.815C3618.66 908.165 3612.7 906.927 3610.49 902.099C3608.95 899.05 3609.72 895.478 3609.98 892.164C3610.51 874.07 3592.2 860.166 3574.13 858.66C3556.06 857.155 3538.58 864.904 3522.12 872.563C3523.6 848.687 3497.1 830.84 3472.98 832.173C3448.86 833.507 3427.88 847.903 3408.17 861.866C3404.35 850.847 3405.3 838.27 3411.02 827.959C3356.29 837.715 3302.4 852.988 3250.56 873.174C3253.72 859.905 3256.8 846.892 3259.97 833.623C3224.33 850.739 3191.15 873.191 3162.05 899.95C3161.98 887.041 3161.74 874.217 3161.67 861.307C3127.72 884.784 3093.86 908.429 3059.91 931.905L3061.22 898.773C3008.51 929.156 2963.21 972.575 2930.68 1023.99C2930.52 1014.73 2930.36 1005.47 2930.37 996.129C2895.55 1033.63 2866.28 1076.18 2843.56 1122.02C2846.13 1110.53 2848.69 1099.05 2851.26 1087.57C2809.79 1136.06 2815.93 1215.95 2766.63 1256.51C2745.9 1273.53 2718.1 1280.75 2699.25 1299.8C2669.51 1116.78 2639.68 933.579 2609.95 750.552C2606.81 731.121 2627.62 722.757 2647.39 723.402C2667.17 724.048 2683.78 737.114 2700.39 748.055C2741.27 774.989 2789.08 791.859 2838.08 796.236C2828.72 784.826 2823.36 770.334 2823.04 755.642C2875.17 784.122 2932.95 802.121 2992.09 808.391C2976.85 794.214 2966.64 774.74 2963.42 754.29C3024.77 778.978 3092.27 788.679 3158.33 782.337C3148.03 768.215 3137.65 754.348 3127.35 740.225C3182.15 747.625 3237.98 748.989 3293.13 744.326C3281.13 730.639 3269.29 716.865 3257.29 703.178C3325.99 701.661 3394.62 684.687 3456.02 653.741L3415.65 624.851C3464.5 614.875 3510.98 593.362 3549.96 562.041C3536.77 543.86 3498.07 541.713 3503.8 519.936C3506.28 510.408 3517.2 506.181 3526.32 502.643C3563.16 488.323 3595.49 462.478 3617.51 429.731C3602.18 417.083 3591.29 399.227 3586.88 379.803C3613.57 370.81 3646.66 347.763 3634.16 322.867C3631.18 316.939 3625.73 311.621 3626.67 304.991C3627.44 299.296 3632.82 295.526 3637.6 292.27C3669.5 270.675 3696.03 241.382 3714.39 207.723C3670.08 198.646 3623.88 199.008 3579.63 208.787C3587.91 198.885 3592.52 185.946 3592.03 173.039C3566.62 177.778 3540.96 182.434 3515.55 187.173C3509.5 188.314 3502.42 189.121 3498.08 184.73C3490.93 177.723 3498.1 165.195 3494.36 156.044C3489.6 144.012 3472.12 146.24 3459.84 150.306C3438.87 157.482 3418.06 164.571 3397.09 171.747C3398.46 161.291 3399.92 150.581 3401.3 140.126C3361.74 146.054 3323.62 161.656 3291.13 185.039C3293.52 171.944 3296.01 158.594 3298.41 145.5C3259.53 153.632 3222.86 171.689 3193 197.773C3192.59 185.46 3195.07 172.96 3200.63 161.885C3168.4 167.515 3138.21 184.003 3116.19 208.257C3116.8 197.976 3117.41 187.696 3118.1 177.584C3075.64 191.769 3036.4 216.211 3004.67 247.912C3009.1 246.102 3007.15 238.809 3002.72 237.222C2998.28 235.635 2993.42 237.873 2989.33 239.936C2949.85 260.472 2913 286.259 2880.15 316.184C2882.38 306.573 2878.55 295.979 2870.89 290.079C2850.06 317.978 2834.26 349.499 2824.34 382.938C2818.73 367.089 2815.68 350.375 2815.35 333.56C2792.12 379.65 2770.77 426.492 2751.29 474.088C2757.26 463.01 2738.52 452.506 2728.03 459.704C2717.71 466.815 2715.65 481.012 2714.62 493.418C2711.25 531.829 2708.06 570.155 2704.7 608.566C2701.05 594.064 2687.93 582.421 2673.02 580.812C2685.35 605.369 2683.11 636.639 2667.32 659.242C2651.53 681.844 2622.62 694.928 2595.17 691.781C2591.37 573.149 2587.74 454.431 2583.93 335.799C2582.61 296.567 2582.38 271.427 2616.4 251.518L2614.79 251.697Z" fill="#F7F7F7"/>
<path d="M1389.23 1144.68C1377.37 1074.3 1359.32 1005.1 1353.2 933.732C1350.11 908.985 1348.55 884.077 1344.58 859.186C1334.05 797.1 1307.67 738.685 1297.48 676.173C1278.79 535.822 1284.55 393.564 1276.22 252.296C1274.96 211.35 1276.56 170.185 1286.24 130.213C1308.47 55.4397 1346.97 -14.3032 1389.36 -79.6071C1444.92 -164.627 1496.53 -252.44 1548.66 -339.683C1561.07 -362.287 1571.65 -385.952 1582.33 -409.394C1593.33 -429.744 1599.67 -462.809 1623.05 -471.244C1652.65 -476.029 1651.35 -439.58 1655.16 -419.202C1663.51 -368.525 1672.4 -317.827 1674.35 -266.409C1679.95 -181.867 1640.78 -103.465 1621.61 -22.5257C1595.81 50.8997 1624.04 126.537 1641.43 198.456C1659.4 281.17 1688.87 367.3 1670.19 452.327C1660.23 502.401 1636.49 548.202 1622.63 596.806C1606.15 670.594 1603.01 748.309 1570.56 817.738C1538.26 886.293 1490.54 947.541 1473.56 1022.63C1462.43 1068.92 1453.37 1115.62 1446.7 1162.86C1444.17 1179.91 1442.41 1196.88 1439.88 1213.93C1438.85 1220.6 1437.48 1227.69 1432.25 1232.22C1455.52 1280.18 1479.24 1327.93 1506.09 1374.27C1579.97 1500.94 1663.06 1622.36 1729.42 1753.24C1730.31 1736.13 1731.52 1719.13 1730.09 1702.26C1721.19 1600.88 1715.51 1498.85 1695.46 1399.01C1678.02 1297.19 1649.21 1197.01 1636.85 1094.51C1629.46 1010.78 1642.59 927.183 1652.07 844.437C1659.47 744.57 1700.35 653.261 1736.09 561.313C1754.29 513.977 1766.42 464.537 1778.01 415.075C1798.52 336.496 1818.61 257.572 1825.73 176.163C1831.66 150.558 1825.28 83.3566 1857.97 78.2522C1869.01 76.4832 1878.13 84.7537 1881.14 94.9851C1909.26 162.044 1942.06 227.525 1960.17 298.041C2003.5 487.615 2062.37 672.846 2109.59 861.471C2122.8 913.987 2138.73 967.158 2138.68 1021.91C2141.73 1124.05 2065.08 1201.1 2027.05 1289.77C1991.77 1364.26 1998.95 1450.51 1968.43 1526.61C1947.35 1586.04 1900.66 1629.3 1859.49 1674.64C1833.87 1703.77 1808.89 1733.69 1785.08 1764.42C1777.08 1775.33 1766.91 1785.59 1763.21 1798.86C1762.27 1803.33 1759.5 1806.74 1756.11 1809.36C1782.91 1868.12 1809.71 1926.88 1835.39 1986.15C1883.77 2111.17 1937.11 2235.28 1963.59 2367.24C1970.39 2395.43 1984.96 2433.05 1953.82 2451.74C1937.32 2461.1 1914.66 2456.81 1903.62 2441.32C1895.26 2430.55 1896.02 2416.73 1891.56 2404.46C1879.43 2357.92 1873.39 2309.97 1860.37 2263.84C1827.9 2164.51 1790.44 2066.64 1749.18 1970.48C1744.67 1970.64 1740.29 1970.47 1736.1 1970.74C1710.33 1970.29 1684.04 1968.72 1658.62 1964.87C1575.93 1991.01 1504.44 2042.53 1423.07 2071.58C1284.62 2128.64 1129.25 2132.71 984.366 2098.59C888.418 2076.28 793.222 2043.11 713.891 1983.08C628.372 1921.26 535.035 1871.34 441.065 1823.6C370.674 1790.52 295.737 1767.04 230.359 1723.6C211.404 1711.43 191.879 1699.79 174.329 1685.36C170.499 1682.24 167.259 1678.05 165.584 1673.15C162.781 1663.36 167.737 1651.68 177.527 1648.33C248.649 1640.1 320.462 1631.02 392.38 1630.52C471.891 1629.55 551.039 1637.9 630.565 1639.35C728.225 1637.43 824.291 1651.07 919.431 1671.59C995.236 1686.85 1072.31 1694.8 1147.73 1711.59C1249.4 1733.46 1348.15 1768.53 1437.72 1822.04C1505.83 1860.2 1574.77 1907.96 1652.31 1921.09C1659.86 1918.74 1668.57 1920.73 1674.16 1926.56C1679.37 1927.97 1685.52 1927.88 1690.98 1928.64C1704.56 1929.5 1718.42 1931.58 1732.42 1932.78C1693.1 1843.3 1650.76 1754.91 1605.73 1668.28C1553.14 1572.68 1499.43 1477.58 1448.08 1381.14C1434.76 1354.02 1422.1 1326.59 1409.67 1299.06C1391 1296.47 1368.94 1288.13 1357.94 1285.83C1355.77 1285.2 1356.76 1285.02 1355.03 1287.15C1348.64 1296.25 1336.28 1298.07 1326.97 1303.1C1299.63 1314.68 1274.53 1330.63 1249.95 1347.16C1110.32 1443.31 948.582 1503.64 780.331 1522.7C656.589 1534.82 532.134 1506.01 408.778 1527.93C296.284 1538.72 184.915 1565.72 71.6073 1566.37C18.1835 1565.5 3.73786 1530.52 53.7605 1505.97C226.444 1409.68 384.932 1286.12 569.567 1212.72C642.756 1185.22 719.859 1169.97 796.978 1157.14C860.124 1147.95 923.435 1137.33 987.452 1139.6C1099.4 1140.11 1200.19 1195.81 1304.24 1230.09C1333.36 1240.35 1362.49 1250.61 1391.77 1259.99C1364.99 1200.68 1338.88 1141.07 1309.19 1083.08C1270.55 1007.03 1226.85 934.092 1182.03 861.656C1175.55 864.592 1168.22 863.867 1162.22 860.116C1149.83 854.136 1137.19 848.807 1124.56 843.478C1107.46 837.206 1090.7 830.507 1073.73 823.91C1028.77 850.745 984.731 879.594 939.151 905.636C833.884 967.613 737.458 1013.99 612.265 1009.78C525.082 1010.46 437.762 997.713 350.7 1009.39C144.592 1039.41 -59.8851 1117.75 -235.801 955.891C-252.069 939.536 -273.504 929.027 -289.915 913.547C-290.947 911.857 -290.659 910.11 -291.143 908.442C-299.976 909.747 -308.132 907.78 -310.87 896.35C-313.171 879.33 -293.092 876.703 -281.045 871.785C-232.295 854.553 -186.353 830.504 -141.039 805.662C-25.4183 742.768 88.1984 666.494 222.497 653.91C273.358 647.314 324.803 642.609 376.295 645.163C456.508 648.724 534.163 672.854 613.513 681.659C692.857 693.432 774.206 676.259 852.703 695.694C927.508 714.107 997.106 747.818 1068.68 775.78C1074.63 778.21 1080.57 780.64 1086.51 783.07C1093.25 781.903 1100.42 784.051 1104.02 790.238C1119.57 796.67 1135.11 803.651 1150.2 810.834C1126.74 773.202 1103.07 735.67 1079.84 697.937C1055.76 659.51 1031.8 620.758 1007.72 582.332C1007.27 582.534 1007.25 583.083 1007.03 583.184C995.875 587.698 984.687 579.017 973.424 577.919C945.79 571.567 917.645 567.063 889.659 564.105C767.756 548.697 643.679 555.302 522.869 531.582C447.675 514.693 373.298 485.303 308.404 443.529C277.826 416.943 252.84 384.858 222.262 358.272C172.852 307.866 106.683 284.732 44.24 256.136C-28.4971 218.455 -97.1459 165.981 -139.715 94.9521C-152.056 73.5833 -246.884 -95.8965 -194.753 -98.4853C-191.459 -101.326 -187.335 -102.924 -182.771 -101.757C-158.191 -90.2462 -135.001 -74.0621 -109.384 -63.8303C-24.9525 -27.6727 57.6858 12.2632 142.73 46.7955C209.52 73.6914 281.336 84.2916 349.516 106.514C421.633 129.11 488.14 166.109 556.627 197.358C566.017 201.462 575.082 205.443 584.148 209.424C570.264 188.215 557.946 166.297 552.562 157.952C515.796 98.5828 495.365 31.274 485.532 -37.6012C474.186 -90.1543 492.311 -141.231 503.29 -192.035C512.742 -240.261 516.511 -289.148 526.51 -337.352C542.238 -408.641 567.421 -477.473 589.986 -546.736C604.076 -590.054 617.842 -633.494 627.367 -677.979C628.747 -688.04 637.064 -695.852 647.354 -695.121C654.01 -694.093 658.186 -691.402 660.899 -687.778C679.606 -683.312 677.882 -653.146 685.281 -637.356C697.204 -599.623 711.015 -562.475 725.721 -525.733C822.831 -276.678 1015.31 -63.8196 1052.84 207.104C1057.45 257.855 1049.66 308.564 1049.12 359.225C1048.37 398.115 1048.72 437.048 1048.75 475.857C1048.32 478.479 1048.53 481.346 1048.75 484.213C1054.26 489.265 1054.51 496.97 1055.55 504.047C1057.43 520.721 1059.63 537.518 1063.6 554.053C1069.3 576.812 1077.11 598.885 1085.37 620.754C1087.53 627.325 1091.84 635.078 1093.95 642.746C1166 754.61 1237.69 866.901 1304.46 981.967C1335.33 1034.84 1362.18 1089.54 1388.68 1144.66L1389.23 1144.68Z" fill="white"/>
<path d="M746.918 212.954C749.589 209.509 751.953 205.835 754.905 202.608C755.888 201.445 756.942 200.344 757.896 199.136C760.25 196.094 761.786 192.492 764.173 189.448C769.705 182.802 776.328 177.176 782.327 170.958C784.114 169.208 786.028 167.577 788.22 166.359C792.492 164.265 797.209 163.112 801.885 162.317C807.99 161.299 814.056 159.988 820.119 158.724C821.645 158.346 823.143 157.843 824.635 157.354C826.001 157.007 827.747 155.924 829.088 156.627C830.521 157.76 828.831 159.209 828.074 160.224C826.142 162.695 824.232 165.193 822.004 167.407C818.439 171.156 813.307 172.638 808.884 175.123C804.526 177 802.292 181.398 799.78 185.156C796.806 189.385 794.153 194.273 789.567 196.95C786.909 198.574 783.875 199.401 781.123 200.788C777.132 203.099 773.514 206.172 769.061 207.585C764.653 208.968 759.939 209.355 755.869 211.698C753.333 213.112 750.863 214.636 748.468 216.29C747.598 216.882 746.764 217.505 745.894 218.096C745.553 218.326 745.178 218.557 744.759 218.509C743.564 221.54 742.397 224.582 741.422 227.706C738.777 236.269 736.747 245.028 733.603 253.426C734.408 252.758 735.221 252.11 735.92 251.347C740.105 246.754 744.451 242.278 748.108 237.247C751.961 232.25 755.272 226.811 759.365 222.014C762.819 218.219 767.113 215.351 771.218 212.355C776.006 208.557 781.788 206.618 787.387 204.422C790.261 203.283 792.98 201.783 795.678 200.258C800.05 197.93 804.42 195.569 808.368 192.522C809.762 191.73 812.516 188.663 814.091 189.922C814.625 190.346 814.629 191.098 814.293 191.656C812.441 195.695 810.851 199.878 808.431 203.61C801.705 213.4 795.813 223.71 789.289 233.636C787.475 236.402 785.744 239.318 783.284 241.581C778.824 245.943 772.209 245.683 766.663 247.64C761.866 249.135 758.29 253.025 753.617 254.801C750.081 256.311 746.217 256.001 742.487 256.024C740.125 256.077 737.753 256.191 735.393 256.392C734.574 256.483 733.694 256.451 732.946 256.833C732.707 256.976 732.44 256.992 732.183 256.948C730.648 260.584 729.113 264.22 727.51 267.826C723.889 275.173 720.514 282.706 715.679 289.356C714.694 290.828 713.605 293.039 711.484 292.412C710.384 292.057 709.644 290.86 709.885 289.723C710.024 288.901 710.676 288.364 711.043 287.656C712.633 285.185 714.537 282.93 716.072 280.436C719.194 274.867 722.046 269.134 724.664 263.301C724.471 263.105 724.299 262.9 724.114 262.724C723.073 261.546 722.062 260.299 721.188 258.996C716.61 256.358 711.354 255.275 706.7 252.816C698.438 248.95 691.859 242.131 687.426 234.204C684.477 228.966 682.047 223.312 681.476 217.261C680.731 210.858 679.129 204.596 677.404 198.395C675.991 193.86 673.96 189.519 673.218 184.782C672.984 183.426 672.703 182.066 672.628 180.68C672.611 180.379 672.665 180.06 672.817 179.782C673.14 179.251 673.869 178.991 674.423 179.292C677.72 182.15 681.084 185.005 684.067 188.218C687.384 191.754 690.268 195.659 693.477 199.296C697.584 203.608 700.926 208.493 703.922 213.62C706.358 217.661 709.174 221.456 711.525 225.542C714.729 231.02 717.22 236.911 718.506 243.153C719.597 247.795 720.291 252.871 722.893 256.901C723.31 257.144 723.579 257.618 723.547 258.11C723.699 258.403 723.956 258.676 724.147 258.953C724.667 259.599 725.144 260.308 725.667 260.988C728.065 255.518 730.29 249.958 732.325 244.349C734.452 238.029 736.51 231.68 738.725 225.382C739.394 223.66 740.105 221.957 740.829 220.259C740.177 219.312 739.642 217.975 739.293 217.385C739.232 217.261 739.281 217.298 739.114 217.309C738.443 217.398 737.852 216.917 737.243 216.706C735.597 215.956 733.848 215.487 732.094 215.065C722.029 212.762 712.662 207.984 704.879 201.206C699.241 196.142 695.411 189.353 689.348 184.712C684.232 180.099 678.435 176.207 673.741 171.138C671.581 168.7 672.556 166.603 675.718 167.837C687.15 171.621 699.222 173.637 710.118 178.905C714.366 181.059 718.225 183.896 721.976 186.833C724.988 189.293 728.071 191.701 730.605 194.674C735.191 199.73 736.84 206.567 739.584 212.664C740.323 214.399 741.062 216.133 741.845 217.838C743.406 214.18 745.007 210.54 746.388 206.806C748.211 201.922 749.687 196.94 751.093 191.928C750.695 191.758 750.426 191.398 750.347 190.973C750.105 190.169 749.824 189.38 749.543 188.591C749.121 187.563 748.732 186.532 748.329 185.496C745.274 184.584 742.165 183.797 739.12 182.824C732.004 180.653 725.952 178.235 720.987 172.431C717.367 168.538 714.344 164.083 710.236 160.651C700.403 152.623 688.468 146.668 688.492 132.061C688.556 130.653 688.145 129.254 688.165 127.875C688.198 127.759 688.288 127.7 688.343 127.609C687.921 127.266 687.674 126.818 688.074 126.222C688.743 125.414 689.688 126.209 690.405 126.547C693.185 128.027 696.156 129.098 699.137 130.108C706.721 132.707 714.822 134.661 720.916 140.181C723.306 142.195 725.636 144.314 727.641 146.736C730.783 150.491 732.897 154.981 735.768 158.914C738.507 162.969 742.627 165.918 744.986 170.252C747.239 174.378 748.591 178.902 750.282 183.278C750.418 183.646 750.553 184.014 750.689 184.381C751.019 184.636 751.217 185.047 751.088 185.465C751.44 186.431 751.766 187.418 752.064 188.394C752.788 185.782 753.498 183.165 754.236 180.56C754.97 177.887 755.723 175.207 756.457 172.534C756.429 172.523 756.404 172.544 756.39 172.538C755.728 172.224 755.657 171.361 755.243 170.809C754.391 169.304 753.434 167.852 752.415 166.471C748.088 160.351 742.683 155.044 738.774 148.629C736.437 144.549 734.694 139.988 733.898 135.342C733.832 132.867 734.244 130.416 734.179 127.941C734.407 123.634 732.722 119.701 731.435 115.71C730.132 110.88 729.661 105.622 731.098 100.77C731.549 99.3306 735.253 88.0553 737.516 90.2928C737.779 90.3234 738.02 90.4428 738.156 90.6963C738.651 92.2779 738.879 93.9903 739.474 95.5656C741.327 100.858 742.937 106.227 744.888 111.48C746.43 115.596 748.911 119.265 750.72 123.25C752.674 127.428 753.752 131.95 755.168 136.323C755.371 136.915 755.565 137.487 755.76 138.059C756.14 136.558 756.617 135.097 756.77 134.51C757.922 130.4 760.102 126.697 762.789 123.406C764.682 120.722 767.721 119.424 770.453 117.817C773.008 116.247 775.357 114.394 777.933 112.85C781.781 110.608 785.908 108.894 789.946 107.044C792.471 105.885 794.988 104.708 797.377 103.296C797.886 102.942 798.579 102.993 798.97 103.486C799.197 103.828 799.248 104.127 799.198 104.399C799.767 105.425 798.342 106.595 797.938 107.581C796.735 109.678 795.636 111.836 794.591 114.017C787.409 128.686 785.777 146.148 775.16 159.042C773.071 161.349 770.474 163.096 768.177 165.167C766.401 166.742 764.667 168.369 762.926 169.975C762.79 170.064 762.671 170.193 762.551 170.321C762.551 170.778 762.215 171.108 761.941 171.447C761.269 172.221 760.606 173.015 760.027 173.877C759.24 175.075 758.57 176.34 757.929 177.616C757.723 177.985 757.552 178.499 757.295 178.911C755.239 186.779 753.15 194.648 750.732 202.41C749.63 205.986 748.28 209.456 746.896 212.928L746.918 212.954Z" fill="#4E7637"/>
<path d="M698.612 214.548C696.091 216.422 693.713 219.414 692.939 222.49C690.27 223.427 687.604 224.422 684.927 225.331C685.536 222.796 685.961 220.198 686.148 217.596C686.205 216.746 685.897 214.978 686.285 214.236C686.856 213.112 689.187 211.994 690.165 211.283C696.223 206.901 699.585 199.103 693.161 193.4C687.785 188.75 681.024 192.034 677.364 197.108C675.704 199.617 674.684 202.766 675.321 205.775C676.439 210.038 680.43 213.496 684.804 214.071C684.803 214.116 684.788 214.165 684.787 214.21C684.552 215.859 684.502 217.526 684.254 219.178C683.755 222.573 682.901 225.926 681.774 229.167C680.493 232.588 678.74 235.824 677.682 239.343C676.98 241.518 676.381 243.738 675.782 245.957C675.349 247.59 674.849 249.199 674.529 250.858C674.523 250.89 674.522 250.935 674.516 250.966C673.687 248.655 672.845 246.349 671.965 244.068C668.984 235.841 666.328 227.501 663.364 219.283C662.731 217.524 661.679 215.563 662.16 213.692C662.681 211.66 664.066 209.427 664.914 207.49C669.894 197.241 666.498 185.552 663.826 175.133C666.607 173.478 669.133 170.977 669.392 167.624C669.615 164.7 668.362 161.772 666.482 159.584C664.01 157.112 660.212 155.382 656.684 156.19C652.965 157.249 650.223 160.767 649.261 164.406C648.555 167.163 649.268 170.178 651.173 172.3C653.66 175.168 657.958 176.927 661.588 175.27C661.73 175.495 661.947 175.623 662.207 175.694C662.297 176.143 662.374 176.596 662.464 177.045C663.66 183.547 665.115 190.12 664.762 196.775C664.641 198.553 664.551 200.336 664.116 202.06C663.362 204.906 662.006 207.531 661.123 210.342C660.955 210.973 660.697 211.602 660.519 212.25C660.251 211.557 659.983 210.864 659.742 210.162C658.492 206.549 657.82 202.777 656.819 199.104C654.806 191.568 652.415 188.373 647.406 182.616C644.283 178.822 641.123 175.054 638.074 171.208C639.615 170.387 640.922 169.131 642.001 167.765C644.152 164.959 644.584 160.945 643.469 157.634C642.449 154.934 639.992 152.86 637.2 152.196C632.918 151.236 628.216 154.927 626.068 158.387C622.162 164.726 627.538 173.334 635.069 171.323C635.281 171.78 635.807 171.994 636.347 171.906C638.133 175.119 640.379 178.18 642.542 181.161C644.773 184.315 647.34 187.205 649.667 190.285C650.191 191.036 650.668 191.83 651.1 192.623C650.634 192.212 650.168 191.802 649.669 191.431C647.11 189.611 644.287 188.153 641.332 187.047C637.267 185.62 633.232 183.797 629.032 182.813C628.987 182.514 628.914 182.223 628.75 181.975C628.834 180.372 628.172 178.814 627.116 177.629C624.385 174.446 619.515 172.621 615.576 174.535C612.777 176.032 611.639 179.381 611.157 182.339C610.014 188.547 615.291 192.467 621.032 192.482C625.159 192.282 628.686 188.647 629.024 184.571C629.414 184.677 629.795 184.756 630.17 184.911C633.15 186.099 636.072 187.393 639.042 188.599C641.421 189.521 643.751 190.532 645.96 191.832C648.915 193.384 651.227 195.77 653.475 198.19C654.532 201.31 655.311 204.544 656.247 207.656C657.316 211.16 658.763 214.535 660.26 217.88C661.644 221.095 662.705 224.423 663.902 227.71C664.844 230.299 665.677 232.921 666.47 235.555C664.728 234.025 663.033 232.451 661.085 231.176C657.67 228.691 653.436 227.94 649.669 226.215C646.597 224.772 643.682 222.955 641.262 220.557C640.797 220.101 640.314 219.636 639.849 219.181C640.33 218.947 640.732 218.647 640.848 218.091C641.927 216.725 643.132 215.231 643.516 213.434C644.358 210.041 643.292 206.298 641.125 203.601C638.322 200.276 633.35 199.301 629.294 200.58C624.88 201.907 621.823 206.012 621.523 210.567C620.991 215.981 626.348 219.773 631.106 220.828C633.38 221.453 635.691 220.714 637.858 219.943C638.303 220.479 638.761 221.011 639.228 221.525C643.616 226.502 649.369 228.984 655.552 230.965C659.27 232.377 662.352 234.993 665.377 237.521C666.077 238.114 666.796 238.672 667.564 239.245C668.961 244.138 670.272 249.042 671.847 253.882C672.405 255.739 672.963 257.595 673.522 259.451C668.158 256.778 662.625 254.483 656.95 252.558C654.487 251.75 651.912 251.364 649.361 250.91C649.065 250.865 648.8 250.826 648.528 250.714C650.039 248.653 649.153 245.659 649.01 243.351C648.829 240.369 648.105 237.714 645.679 235.69C642.124 232.74 636.613 233.341 633.294 236.378C630.867 238.566 629.468 241.89 629.496 245.156C629.691 251.006 635.105 255.778 640.951 255.151C643.322 254.959 645.614 253.957 647.259 252.242C647.747 252.378 648.244 252.497 648.691 252.645C651.151 253.245 653.641 253.746 656.05 254.57C660.873 256.289 665.555 258.379 670.247 260.406C671.625 260.974 672.972 261.686 674.365 262.205C677.963 274.22 681.538 286.258 685.802 298.058C687.723 303.405 690.127 308.576 693.037 313.446C693.661 314.479 694.298 315.508 695.023 316.48C695.423 317.119 696.066 317.521 696.839 317.467C697.853 317.371 698.607 316.31 698.343 315.333C697.88 314.237 697.077 313.303 696.559 312.223C693.932 307.551 691.649 302.685 689.764 297.656C686.902 289.973 684.645 282.019 682.189 274.2C680.952 270.285 679.715 266.37 678.433 262.455C677.507 259.622 676.046 256.847 675.993 253.796C675.953 251.234 677.07 248.755 677.788 246.336C678.74 243.207 679.561 240.042 680.745 236.992C681.519 234.959 682.508 232.994 683.3 230.97C683.79 229.677 684.231 228.368 684.605 227.035C684.646 227.023 684.691 227.024 684.746 227.008C687.843 226.106 690.863 225.049 693.963 224.162C693.239 224.379 695.962 229.023 696.383 229.432C697.815 230.877 699.983 231.296 701.947 231.286C706.886 231.557 712.066 228.467 712.419 223.196C712.591 220.748 712.525 217.999 711.084 215.932C708.256 211.782 702.467 211.855 698.66 214.608L698.612 214.548Z" fill="#90A74D"/>
<path d="M634.64 260.633H771.545V267.784L737.783 274.942V282.174L758.992 308.141V337.612L726.353 369.091H683.964L646.83 333.552V308.74L667.835 282.174V276.236L634.64 265.292V260.633Z" fill="#C9D591"/>
</g>
<defs>
<clipPath id="clip0_173_1204">
<rect width="1440" height="600" fill="white"/>
</clipPath>
</defs>
</svg>
